<?xml version="1.0" encoding="UTF-8"?><svg id="uuid-ccb38155-c24a-451f-ba81-a8ce13f0c28e" xmlns="http://www.w3.org/2000/svg" viewBox="0 0 300 85.84"><g><path d="M33.4,49.52H16.62V8.32h0C16.62,3.71,12.89,0,8.3,0H0V57.73c0,4.61,3.71,8.34,8.3,8.39H41.7v-8.28h0c0-4.61-3.71-8.32-8.3-8.32" style="fill:#1c1d51;"/><polygon points="50.74 49.74 54.33 49.74 54.33 63.09 62.32 63.09 62.32 66.12 50.74 66.12 50.74 49.74" style="fill:#1c1d51;"/><path d="M71.97,58.92c-.3-1.65-1.02-2.52-2.59-2.52-2.07,0-2.66,1.61-2.71,2.52h5.31Zm-5.31,2.07c.09,2.07,1.1,3.01,2.91,3.01,1.31,0,2.36-.81,2.57-1.54h2.87c-.91,2.8-2.87,3.99-5.55,3.99-3.75,0-6.06-2.57-6.06-6.24s2.45-6.27,6.06-6.27c4.05,0,5.99,3.4,5.76,7.04h-8.56Z" style="fill:#1c1d51;"/><path d="M84.55,60.32c-.54,.47-1.7,.51-2.71,.68-1.02,.21-1.93,.54-1.93,1.75s.95,1.51,2,1.51c2.54,0,2.64-2.01,2.64-2.73v-1.21Zm-7.53-2.42c.18-3.05,2.91-3.98,5.57-3.98,2.36,0,5.2,.53,5.2,3.38v6.17c0,1.09,.12,2.15,.42,2.64h-3.31c-.12-.37-.21-.75-.23-1.14-1.03,1.09-2.54,1.47-3.99,1.47-2.24,0-4.05-1.12-4.05-3.56,0-2.68,2.01-3.33,4.05-3.61,2-.3,3.85-.23,3.85-1.56,0-1.4-.96-1.61-2.1-1.61-1.24,0-2.05,.51-2.15,1.79h-3.26Z" style="fill:#1c1d51;"/><path d="M90.33,54.26h3.1v2.21h.05c.6-1.49,2.21-2.52,3.78-2.52,.23,0,.51,.05,.72,.12v3.03c-.3-.07-.79-.12-1.17-.12-2.38,0-3.21,1.72-3.21,3.8v5.34h-3.26v-11.86h-.02Z" style="fill:#1c1d51;"/><path d="M99.66,54.26h3.1v1.65h.07c.82-1.33,2.24-1.98,3.63-1.98,3.47,0,4.34,1.94,4.34,4.89v7.3h-3.26v-6.71c0-1.94-.58-2.91-2.08-2.91-1.77,0-2.52,.98-2.52,3.4v6.22h-3.26v-11.86h-.02Z" style="fill:#1c1d51;"/><path d="M19.39,46.96h16.5V27.31c0-4.59-3.71-8.3-8.3-8.3h-8.18v27.95h-.02Z" style="fill:#1a6cad;"/><path d="M52.79,68.59H19.39v8.23c0,4.61,3.71,8.34,8.3,8.39H61.09v-8.28h0c0-4.61-3.73-8.32-8.32-8.32" style="fill:#1a6cad;"/><polygon points="70.11 68.83 73.72 68.83 73.72 82.2 81.71 82.2 81.71 85.23 70.11 85.23 70.11 68.83" style="fill:#1a6cad;"/><rect x="123.83" y="68.85" width="3.26" height="16.38" style="fill:#1a6cad;"/><path d="M89.13,83.09c2.22,0,2.89-1.91,2.89-3.78s-.67-3.8-2.89-3.8-2.87,1.91-2.87,3.8,.67,3.78,2.87,3.78m0-10.05c3.75,0,6.15,2.47,6.15,6.27s-2.42,6.24-6.15,6.24-6.13-2.49-6.13-6.24,2.42-6.27,6.13-6.27" style="fill:#1a6cad;"/><path d="M105.48,77.54c-.21-1.33-1.05-2.05-2.42-2.05-2.08,0-2.78,2.12-2.78,3.85s.67,3.75,2.71,3.75c1.51,0,2.38-.96,2.59-2.42h3.14c-.42,3.14-2.59,4.87-5.71,4.87-3.57,0-5.99-2.52-5.99-6.08s2.21-6.43,6.06-6.43c2.8,0,5.38,1.47,5.57,4.5h-3.17Z" style="fill:#1a6cad;"/><path d="M117.95,79.41c-.54,.47-1.7,.51-2.71,.68-1.02,.21-1.93,.54-1.93,1.75s.95,1.51,2,1.51c2.54,0,2.64-2.01,2.64-2.73v-1.21Zm-7.53-2.42c.18-3.05,2.91-3.98,5.57-3.98,2.36,0,5.2,.53,5.2,3.38v6.17c0,1.09,.12,2.15,.42,2.64h-3.31c-.12-.37-.21-.75-.23-1.16-1.03,1.09-2.54,1.47-3.99,1.47-2.24,0-4.05-1.12-4.05-3.56,0-2.68,2.01-3.33,4.05-3.61,2-.3,3.85-.23,3.85-1.56,0-1.4-.96-1.61-2.1-1.61-1.24,0-2.05,.51-2.15,1.79h-3.26v.02Z" style="fill:#1a6cad;"/></g><polyline points="143.36 49.76 143.36 85.25 143.57 85.25 143.57 49.76" style="fill:#767270;"/><g><g><path d="M161.86,63.23c.28,.58,.67,1.03,1.16,1.38s1.07,.6,1.75,.74c.67,.16,1.4,.23,2.15,.23,.44,0,.91-.07,1.44-.19s1-.33,1.45-.6c.44-.28,.82-.63,1.12-1.05,.3-.44,.46-.95,.46-1.56,0-.47-.11-.88-.32-1.23s-.49-.63-.82-.88c-.33-.23-.7-.42-1.12-.58-.4-.14-.81-.26-1.19-.37l-3.73-.91c-.49-.12-.96-.28-1.42-.47-.46-.19-.86-.44-1.21-.75-.35-.32-.63-.7-.84-1.16-.21-.46-.32-1.02-.32-1.66,0-.4,.07-.89,.23-1.44s.46-1.07,.88-1.56c.44-.49,1.02-.89,1.77-1.23s1.72-.51,2.89-.51c.82,0,1.63,.11,2.36,.33,.75,.23,1.4,.54,1.98,.98s1.02,.98,1.35,1.63c.33,.65,.51,1.4,.51,2.26h-1.59c-.04-.65-.18-1.21-.44-1.68-.26-.47-.6-.88-1.02-1.19-.42-.32-.89-.56-1.44-.74-.54-.16-1.1-.25-1.7-.25-.54,0-1.09,.05-1.59,.18s-.96,.3-1.33,.56-.7,.6-.93,1.02-.35,.95-.35,1.58c0,.39,.07,.74,.19,1.02,.14,.3,.32,.54,.56,.74,.23,.21,.51,.37,.81,.49s.63,.23,.98,.3l4.08,1.02c.6,.16,1.16,.35,1.68,.58,.53,.23,.98,.51,1.38,.84s.72,.75,.95,1.23c.23,.49,.33,1.07,.33,1.77,0,.19-.02,.44-.05,.75s-.14,.65-.28,1-.37,.7-.63,1.07c-.28,.37-.65,.68-1.12,.98-.47,.3-1.07,.53-1.77,.7s-1.56,.26-2.54,.26-1.91-.12-2.75-.33c-.84-.23-1.56-.58-2.15-1.05s-1.05-1.07-1.37-1.8-.46-1.63-.4-2.66h1.59c0,.86,.12,1.58,.4,2.15l-.04,.07Z" style="fill:#1a6cad;"/><path d="M176.26,49.81v10.53l6.73-5.87h1.98l-5.17,4.48,5.52,7.64h-1.86l-4.8-6.6-2.4,2v4.61h-1.47v-16.78h1.47Z" style="fill:#1a6cad;"/><path d="M187.59,49.81v2.36h-1.49v-2.36h1.49Zm0,4.66v12.12h-1.49v-12.12h1.49Z" style="fill:#1a6cad;"/><path d="M191.46,49.81v16.78h-1.49v-16.78h1.49Z" style="fill:#1a6cad;"/><path d="M195.36,49.81v16.78h-1.49v-16.78h1.49Z" style="fill:#1a6cad;"/></g><path d="M205.1,56.84c-.18-.33-.4-.61-.7-.84-.3-.21-.63-.39-1-.47-.37-.11-.77-.16-1.19-.16-.33,0-.67,.04-1,.11-.33,.07-.65,.19-.93,.35-.28,.16-.51,.39-.68,.65s-.26,.6-.26,.98c0,.33,.09,.61,.25,.84s.37,.42,.63,.58c.25,.16,.53,.28,.82,.39s.58,.19,.82,.25l1.98,.44c.42,.07,.84,.18,1.26,.33s.79,.39,1.1,.65c.32,.26,.58,.6,.79,.98,.21,.39,.3,.86,.3,1.38,0,.67-.16,1.23-.44,1.68-.3,.46-.68,.84-1.14,1.12-.46,.3-.98,.49-1.56,.63-.58,.12-1.16,.19-1.72,.19-1.42,0-2.57-.33-3.47-1.02-.89-.67-1.38-1.75-1.52-3.24h1.49c.07,1,.42,1.75,1.09,2.26,.67,.51,1.49,.77,2.49,.77,.37,0,.74-.04,1.12-.12s.74-.21,1.07-.4,.6-.42,.81-.72,.32-.65,.32-1.07c0-.37-.07-.67-.23-.91s-.35-.44-.6-.61c-.25-.16-.54-.3-.86-.4s-.65-.21-.98-.28l-1.91-.42c-.49-.12-.93-.26-1.33-.44-.4-.16-.77-.37-1.07-.61s-.54-.54-.72-.89c-.18-.35-.26-.79-.26-1.3,0-.61,.14-1.14,.4-1.58,.28-.44,.63-.79,1.07-1.05s.93-.46,1.47-.6c.54-.12,1.07-.19,1.61-.19,.61,0,1.17,.07,1.7,.23,.53,.16,.98,.4,1.38,.74s.72,.74,.95,1.23c.23,.49,.37,1.05,.4,1.72h-1.49c0-.46-.11-.84-.28-1.19l.02,.04Z" style="fill:#1a6cad;"/><path d="M217.77,55.72v10.88h-1.47v-10.88h-2.07v-1.24h2.07v-1.1c0-.53,.04-1,.12-1.44s.23-.81,.46-1.12c.21-.32,.53-.56,.91-.74,.39-.18,.88-.26,1.47-.26,.21,0,.42,0,.61,.02,.19,0,.4,.04,.63,.07v1.26c-.21-.04-.39-.05-.56-.09-.18-.02-.35-.04-.53-.04-.4,0-.72,.07-.95,.19s-.39,.3-.47,.51c-.11,.21-.16,.46-.18,.74,0,.28-.02,.6-.02,.91v1.05h2.4v1.24h-2.4l-.04,.04Z" style="fill:#1a6cad;"/><g><path d="M229.15,54.63c.72,.35,1.31,.81,1.8,1.38,.49,.58,.86,1.26,1.1,2.03s.37,1.59,.37,2.49-.12,1.7-.37,2.49-.61,1.45-1.1,2.03c-.49,.58-1.09,1.03-1.8,1.37s-1.52,.51-2.45,.51-1.75-.18-2.45-.51c-.72-.33-1.31-.79-1.8-1.37-.49-.58-.86-1.26-1.1-2.03s-.37-1.59-.37-2.49,.12-1.7,.37-2.49,.61-1.45,1.1-2.03c.49-.58,1.09-1.03,1.8-1.38,.72-.35,1.52-.53,2.45-.53s1.73,.18,2.45,.53Zm-4.31,1.17c-.53,.3-.98,.68-1.33,1.17-.35,.49-.61,1.03-.81,1.66-.18,.61-.26,1.24-.26,1.89s.09,1.28,.26,1.89c.18,.61,.46,1.17,.81,1.66,.35,.49,.79,.88,1.33,1.17,.53,.3,1.16,.44,1.86,.44s1.33-.14,1.86-.44,.98-.68,1.33-1.17,.61-1.03,.81-1.66c.18-.61,.26-1.24,.26-1.89s-.09-1.28-.26-1.89c-.18-.61-.46-1.17-.81-1.66-.35-.49-.79-.88-1.33-1.17-.53-.3-1.16-.44-1.86-.44s-1.33,.16-1.86,.44Z" style="fill:#1a6cad;"/><path d="M235.56,54.47v2.84h.05c.37-.98,.96-1.75,1.75-2.28s1.73-.77,2.84-.74v1.49c-.67-.04-1.28,.05-1.84,.26-.54,.21-1.02,.51-1.42,.91-.4,.39-.7,.86-.93,1.4-.23,.54-.33,1.14-.33,1.77v6.46h-1.47v-12.12h1.35Z" style="fill:#1a6cad;"/></g><g><path d="M254.15,56.84c-.18-.33-.4-.61-.7-.84-.3-.21-.63-.39-1-.47-.37-.11-.77-.16-1.19-.16-.33,0-.67,.04-1,.11-.33,.07-.65,.19-.93,.35s-.51,.39-.68,.65-.26,.6-.26,.98c0,.33,.09,.61,.25,.84s.37,.42,.63,.58c.25,.16,.53,.28,.82,.39s.58,.19,.82,.25l1.98,.44c.42,.07,.84,.18,1.26,.33s.79,.39,1.1,.65c.32,.26,.58,.6,.79,.98s.3,.86,.3,1.38c0,.67-.16,1.23-.44,1.68-.3,.46-.68,.84-1.14,1.12-.46,.3-.98,.49-1.56,.63-.58,.12-1.16,.19-1.72,.19-1.42,0-2.57-.33-3.47-1.02-.89-.67-1.38-1.75-1.52-3.24h1.49c.07,1,.42,1.75,1.09,2.26,.67,.51,1.49,.77,2.49,.77,.37,0,.74-.04,1.12-.12s.74-.21,1.07-.4,.6-.42,.81-.72c.21-.3,.32-.65,.32-1.07,0-.37-.07-.67-.23-.91-.16-.25-.35-.44-.6-.61-.25-.16-.54-.3-.86-.4-.32-.11-.65-.21-.98-.28l-1.91-.42c-.49-.12-.93-.26-1.33-.44-.4-.16-.77-.37-1.07-.61s-.54-.54-.72-.89c-.18-.35-.26-.79-.26-1.3,0-.61,.14-1.14,.4-1.58,.28-.44,.63-.79,1.07-1.05s.93-.46,1.47-.6c.54-.12,1.07-.19,1.61-.19,.61,0,1.17,.07,1.7,.23,.53,.16,.98,.4,1.38,.74s.72,.74,.95,1.23c.23,.49,.37,1.05,.4,1.72h-1.49c0-.46-.11-.84-.28-1.19l.02,.04Z" style="fill:#1a6cad;"/><path d="M263.29,54.47v1.24h-2.47v8.18c0,.49,.07,.86,.19,1.14,.14,.28,.47,.42,1,.46,.42,0,.84-.02,1.26-.07v1.24c-.23,0-.44,0-.67,.02-.23,0-.44,.02-.67,.02-.98,0-1.68-.19-2.07-.58-.39-.39-.58-1.09-.56-2.12v-8.3h-2.12v-1.24h2.12v-3.64h1.47v3.64h2.47l.04,.02Z" style="fill:#1a6cad;"/><path d="M273.88,66.59v-2.19h-.05c-.39,.81-.96,1.44-1.7,1.87s-1.58,.65-2.49,.65c-.77,0-1.42-.11-1.96-.32s-.98-.51-1.31-.91c-.33-.39-.58-.88-.74-1.44s-.23-1.21-.23-1.93v-7.86h1.49v7.9c.04,1.1,.28,1.93,.77,2.49,.47,.56,1.3,.84,2.49,.84,.65,0,1.19-.14,1.65-.4,.46-.28,.82-.63,1.12-1.09s.51-.98,.67-1.56c.14-.6,.21-1.19,.21-1.8v-6.38h1.49v12.12h-1.4Z" style="fill:#1a6cad;"/></g><path d="M286.88,66.59v-2.29h-.05c-.16,.39-.39,.75-.7,1.09-.3,.33-.65,.61-1.05,.84-.39,.23-.81,.4-1.26,.53-.44,.12-.89,.19-1.33,.19-.93,0-1.73-.18-2.4-.51-.68-.33-1.24-.81-1.7-1.38-.46-.6-.79-1.26-1.02-2.05-.23-.77-.33-1.59-.33-2.45s.11-1.68,.33-2.45c.21-.77,.56-1.45,1.02-2.05,.46-.6,1.02-1.05,1.7-1.4s1.49-.53,2.4-.53c.46,0,.89,.05,1.33,.16s.84,.28,1.21,.51c.37,.23,.7,.51,1,.84,.3,.33,.51,.72,.67,1.16h.05v-6.95h1.49v16.78h-1.37l.02-.02Zm-8.11-4.19c.14,.61,.39,1.17,.7,1.66,.32,.49,.74,.88,1.23,1.19,.51,.3,1.1,.46,1.8,.46,.79,0,1.45-.16,1.98-.46,.54-.3,.98-.7,1.31-1.19s.58-1.03,.74-1.66c.14-.61,.23-1.24,.23-1.87s-.07-1.24-.23-1.87c-.14-.61-.39-1.17-.74-1.66-.33-.49-.77-.88-1.31-1.19-.54-.3-1.21-.46-1.98-.46-.7,0-1.31,.16-1.8,.46-.51,.3-.91,.7-1.23,1.19s-.56,1.03-.7,1.66c-.16,.61-.23,1.24-.23,1.87s.07,1.24,.23,1.87Z" style="fill:#1a6cad;"/><path d="M290.79,54.47l3.99,10.33,3.73-10.33h1.49l-5.25,13.96c-.23,.53-.42,.95-.61,1.28s-.4,.6-.63,.81c-.23,.19-.49,.33-.81,.42-.3,.09-.7,.12-1.16,.12-.3,0-.53-.04-.7-.04-.16,0-.32-.04-.44-.09v-1.24c.18,.04,.33,.05,.51,.09,.16,.02,.33,.04,.51,.04,.33,0,.6-.05,.81-.14,.21-.09,.4-.23,.56-.39,.16-.16,.3-.37,.4-.6s.23-.49,.35-.77l.53-1.37-4.83-12.07h1.58l-.02-.02Z" style="fill:#1a6cad;"/><g><path d="M160.77,73.37l3.1,10.39h.05l2.96-10.39h1.66l2.96,10.39h.05l3.1-10.39h1.58l-3.91,12.12h-1.63l-2.98-10.19h-.05l-2.96,10.19h-1.63l-3.91-12.12h1.59Z" style="fill:#1a6cad;"/><path d="M184.96,73.53c.72,.35,1.31,.81,1.8,1.38s.86,1.26,1.1,2.03,.37,1.59,.37,2.49-.12,1.7-.37,2.49-.61,1.45-1.1,2.03c-.49,.58-1.09,1.03-1.8,1.37-.72,.33-1.52,.51-2.45,.51s-1.75-.18-2.45-.51c-.72-.33-1.31-.79-1.8-1.37-.49-.58-.86-1.26-1.1-2.03s-.37-1.59-.37-2.49,.12-1.7,.37-2.49,.61-1.45,1.1-2.03c.49-.58,1.09-1.03,1.8-1.38,.72-.35,1.52-.53,2.45-.53s1.73,.18,2.45,.53Zm-4.31,1.17c-.53,.3-.98,.68-1.33,1.17-.35,.49-.61,1.03-.81,1.66-.18,.61-.26,1.24-.26,1.89s.09,1.28,.26,1.89c.18,.61,.46,1.17,.81,1.66,.35,.49,.79,.88,1.33,1.17,.53,.3,1.16,.44,1.86,.44s1.33-.14,1.86-.44c.53-.3,.98-.68,1.33-1.17,.35-.49,.61-1.03,.81-1.66,.18-.61,.26-1.24,.26-1.89s-.09-1.28-.26-1.89c-.18-.61-.46-1.17-.81-1.66-.35-.49-.79-.88-1.33-1.17-.53-.3-1.16-.44-1.86-.44s-1.33,.16-1.86,.44Z" style="fill:#1a6cad;"/><path d="M191.37,73.37v2.84h.05c.37-.98,.96-1.75,1.75-2.28s1.73-.77,2.84-.74v1.49c-.67-.04-1.28,.05-1.84,.26-.54,.21-1.02,.51-1.42,.91-.4,.39-.7,.86-.93,1.4-.23,.54-.33,1.14-.33,1.77v6.46h-1.47v-12.12h1.35Z" style="fill:#1a6cad;"/><path d="M198.43,68.71v10.53l6.73-5.87h1.98l-5.17,4.48,5.52,7.64h-1.86l-4.8-6.6-2.4,2v4.61h-1.47v-16.78h1.47Z" style="fill:#1a6cad;"/></g><path d="M215,75.25c.25-.53,.6-.95,1.02-1.26,.44-.33,.93-.58,1.51-.74,.58-.16,1.23-.23,1.93-.23,.53,0,1.07,.05,1.59,.16s1.02,.3,1.44,.58,.77,.68,1.03,1.19c.26,.51,.4,1.17,.4,1.98v6.45c0,.6,.3,.89,.88,.89,.18,0,.33-.04,.47-.09v1.24c-.18,.04-.33,.05-.46,.07-.14,0-.3,.02-.51,.02-.37,0-.68-.05-.91-.16s-.4-.25-.53-.44-.21-.4-.25-.67-.05-.54-.05-.86h-.05c-.26,.39-.54,.74-.81,1.05-.28,.3-.58,.56-.91,.77-.33,.21-.72,.37-1.16,.47s-.95,.16-1.54,.16c-.56,0-1.09-.07-1.59-.19-.49-.14-.93-.35-1.3-.63-.37-.3-.67-.67-.88-1.1s-.32-.98-.32-1.59c0-.84,.19-1.51,.56-1.98s.88-.84,1.49-1.09,1.31-.42,2.08-.53c.77-.11,1.56-.19,2.36-.3,.32-.04,.6-.07,.82-.12,.23-.05,.44-.12,.6-.25s.28-.28,.37-.47c.09-.21,.12-.47,.12-.81,0-.51-.09-.91-.25-1.23s-.39-.58-.68-.77c-.3-.19-.63-.32-1.02-.39s-.79-.11-1.23-.11c-.95,0-1.7,.23-2.29,.67-.6,.46-.91,1.16-.95,2.15h-1.49c.05-.7,.19-1.31,.46-1.84l.02-.04Zm7.41,3.63c-.09,.18-.28,.3-.54,.37-.26,.07-.51,.14-.7,.16-.63,.11-1.28,.21-1.94,.3s-1.28,.21-1.82,.39c-.54,.18-1,.42-1.35,.74-.35,.32-.53,.77-.53,1.37,0,.37,.07,.7,.23,1,.14,.3,.35,.54,.6,.75s.54,.37,.88,.47,.67,.16,1.02,.16c.56,0,1.1-.09,1.63-.26,.53-.18,.96-.42,1.35-.75,.39-.33,.68-.74,.91-1.19s.33-1,.33-1.59v-1.93h-.05v.04Z" style="fill:#1a6cad;"/><g><path d="M228.35,73.37v2.08h.05c.28-.74,.79-1.33,1.51-1.77s1.51-.67,2.36-.67,1.56,.11,2.12,.33c.58,.23,1.03,.53,1.37,.93,.35,.4,.6,.89,.74,1.47s.21,1.23,.21,1.94v7.79h-1.49v-7.57c0-.53-.05-1-.14-1.45-.09-.44-.26-.84-.49-1.16-.23-.33-.56-.6-.95-.77-.4-.19-.89-.28-1.49-.28s-1.12,.11-1.59,.32-.86,.51-1.17,.88-.58,.81-.75,1.31c-.18,.51-.28,1.07-.3,1.66v7.08h-1.49v-12.12h1.49l.02-.02Z" style="fill:#1a6cad;"/><path d="M248.37,85.49v-2.29h-.05c-.16,.39-.39,.75-.7,1.09-.3,.33-.65,.61-1.05,.84-.39,.23-.81,.4-1.26,.53-.44,.12-.89,.19-1.33,.19-.93,0-1.73-.18-2.4-.51-.68-.33-1.24-.81-1.7-1.38-.46-.6-.79-1.26-1.02-2.05-.23-.77-.33-1.59-.33-2.45s.11-1.68,.33-2.45c.21-.77,.56-1.45,1.02-2.05,.46-.6,1.02-1.05,1.7-1.4s1.49-.53,2.4-.53c.46,0,.89,.05,1.33,.16s.84,.28,1.21,.51,.7,.51,1,.84c.3,.33,.51,.72,.67,1.16h.05v-6.95h1.49v16.78h-1.37l.02-.02Zm-8.11-4.19c.14,.61,.39,1.17,.7,1.66,.32,.49,.74,.88,1.23,1.19,.51,.3,1.1,.46,1.8,.46,.79,0,1.45-.16,1.98-.46,.54-.3,.98-.7,1.31-1.19s.58-1.03,.74-1.66c.14-.61,.23-1.24,.23-1.87s-.07-1.24-.23-1.87c-.14-.61-.39-1.17-.74-1.66-.33-.49-.77-.88-1.31-1.19-.54-.3-1.21-.46-1.98-.46-.7,0-1.31,.16-1.8,.46-.51,.3-.91,.7-1.23,1.19s-.56,1.03-.7,1.66c-.16,.61-.23,1.24-.23,1.87s.07,1.24,.23,1.87Z" style="fill:#1a6cad;"/></g><g><path d="M259.61,68.71v16.78h-1.49v-16.78h1.49Z" style="fill:#1a6cad;"/><path d="M263.97,68.71v2.36h-1.49v-2.36h1.49Zm0,4.66v12.12h-1.49v-12.12h1.49Z" style="fill:#1a6cad;"/><path d="M269.09,74.61v10.88h-1.47v-10.88h-2.07v-1.24h2.07v-1.1c0-.53,.04-1,.12-1.44s.23-.81,.46-1.12c.21-.32,.53-.56,.91-.74s.88-.26,1.47-.26c.21,0,.42,0,.61,.02,.19,0,.4,.04,.63,.07v1.26c-.21-.04-.39-.05-.56-.09-.18-.02-.35-.04-.53-.04-.4,0-.72,.07-.95,.19s-.39,.3-.47,.51c-.11,.21-.16,.46-.18,.74,0,.28-.02,.6-.02,.91v1.05h2.4v1.24h-2.4l-.04,.04Z" style="fill:#1a6cad;"/></g><path d="M273.52,81.48c.14,.58,.39,1.09,.72,1.54,.33,.46,.74,.82,1.24,1.12,.51,.3,1.1,.44,1.8,.44,1.09,0,1.93-.28,2.54-.84,.61-.56,1.03-1.31,1.26-2.26h1.49c-.32,1.38-.89,2.43-1.73,3.19-.84,.75-2.03,1.12-3.56,1.12-.96,0-1.79-.18-2.49-.51-.7-.33-1.26-.81-1.7-1.38-.44-.6-.77-1.26-.98-2.05-.21-.77-.32-1.59-.32-2.45,0-.81,.11-1.58,.32-2.35s.54-1.45,.98-2.05c.44-.6,1-1.09,1.7-1.45,.7-.37,1.52-.56,2.49-.56s1.8,.19,2.49,.6c.68,.39,1.24,.91,1.68,1.54s.74,1.37,.93,2.19,.26,1.66,.23,2.5h-9.34c0,.53,.07,1.09,.23,1.66h.02Zm7.34-4.52c-.18-.53-.44-.98-.77-1.37-.33-.4-.74-.72-1.19-.96-.47-.25-1-.37-1.59-.37s-1.16,.12-1.63,.37c-.47,.25-.88,.56-1.19,.96-.33,.4-.6,.86-.79,1.38s-.33,1.07-.39,1.61h7.85c0-.56-.12-1.1-.3-1.63h0Z" style="fill:#1a6cad;"/></g></svg>